# AST/ASF file generated using VICON BodyLanguage
# -----------------------------------------------
:version 1.10
:name VICON
:units
  mass 1.0
  length 0.45
  angle deg
:documentation
   .ast/.asf automatically generated from VICON data using
   VICON BodyBuilder and BodyLanguage model FoxedUp or BRILLIANT.MOD
:root
   order TX TY TZ RX RY RZ
   axis XYZ
   position 0 0 0  
   orientation 0 0 0 
:bonedata
  begin
     id 1 
     name lhipjoint
     direction 0.671379 -0.66392 0.329334 
     length 2.38647 
     axis 0 0 0  XYZ
  end
  begin
     id 2 
     name lfemur
     direction 0.34202 -0.939693 0  
     length 6.48179  
     axis 0 0 20  XYZ
    dof rx ry rz
    limits (-160.0 20.0)
           (-70.0 70.0)
           (-60.0 70.0)
  end
  begin
     id 3 
     name ltibia
     direction 0.34202 -0.939693 0   
     length 6.86524   
     axis 0 0 20   XYZ
    dof rx
    limits (-10.0 170.0)
  end
  begin
     id 4 
     name lfoot
     direction 0.204886 -0.562919 0.800715   
     length 1.73031   
     axis -90 7.62852e-016 20   XYZ
    dof rx rz
    limits (-45.0 90.0)
           (-70.0 20.0)
  end
  begin
     id 5 
     name ltoes
     direction 1.53548e-011 -4.21841e-011 1   
     length 0.828161   
     axis -90 7.62852e-016 20   XYZ
    dof rx
    limits (-90.0 20.0)
  end
  begin
     id 6 
     name rhipjoint
     direction -0.662732 -0.670855 0.332775   
     length 2.3618  
     axis 0 0 0  XYZ 
  end
  begin
     id 7 
     name rfemur
     direction -0.34202 -0.939693 0   
     length 6.3025   
     axis 0 0 -20   XYZ
    dof rx ry rz
    limits (-160.0 20.0)
           (-70.0 70.0)
           (-70.0 60.0)
  end
  begin
     id 8 
     name rtibia
     direction -0.34202 -0.939693 0   
     length 6.8732   
     axis 0 0 -20   XYZ
    dof rx
    limits (-10.0 170.0)
 end
 begin
     id 9 
     name rfoot
     direction -0.173856 -0.477665 0.861168   
     length 1.54784  
     axis -90 -7.62852e-016 -20   XYZ
    dof rx rz
    limits (-45.0 90.0)
           (-20.0 70.0)
  end
  begin
     id 10 
     name rtoes
     direction -1.53562e-011 -4.21802e-011 1   
     length 0.759618   
     axis -90 -7.62852e-016 -20   XYZ
    dof rx
    limits (-90.0 20.0)
  end
  begin
     id 11 
     name lowerback
     direction -0.0278357 0.999497 -0.0151789   
     length 1.97203   
     axis 0 0 0   XYZ
    dof rx ry rz
    limits (-20.0 45.0)
           (-30.0 30.0)
           (-30.0 30.0)
  end
  begin
     id 12 
     name upperback
     direction -0.00360622 0.997542 0.0699804   
     length 1.94709   
     axis 0 0 0   XYZ
    dof rx ry rz
    limits (-20.0 45.0)
           (-30.0 30.0)
           (-30.0 30.0)
  end
  begin
     id 13 
     name thorax
     direction 0.00907706 0.997048 0.0762461   
     length 1.95722   
     axis 0 0 0   XYZ
    dof rx ry rz
    limits (-20.0 45.0)
           (-30.0 30.0)
           (-30.0 30.0)
  end
  begin
     id 14 
     name lowerneck
     direction -0.0481835 0.99872 -0.0153927   
     length 1.63078   
     axis 0 0 0   XYZ
    dof rx ry rz
    limits (-20.0 45.0)
           (-30.0 30.0)
           (-30.0 30.0)
  end
  begin
     id 15 
     name upperneck
     direction 0.0859716 0.979226 -0.183644   
     length 1.62591   
     axis 0 0 0   XYZ
    dof rx ry rz
    limits (-20.0 45.0)
           (-30.0 30.0)
           (-30.0 30.0)
  end
  begin
     id 16
     name head
     direction 0.0324821 0.997629 -0.0606773  
     length 1.64811  
     axis 0 0 0   XYZ
    dof rx ry rz
    limits (-20.0 45.0)
           (-30.0 30.0)
           (-30.0 30.0)
  end
  begin
     id 17 
     name lclavicle
     direction 0.939609 0.311019 0.142835  
     length 3.70647  
     axis 0 0 0   XYZ
    dof ry rz
    limits (-20.0 10.0)
           (0.0 20.0)
  end
  begin
     id 18 
     name lhumerus
     direction 1 -4.48963e-011 -1.59838e-027   
     length 4.59207   
     axis 180 -30 -90   XYZ
    dof rx ry rz
    limits (-60.0 90.0)
           (-90.0 90.0)
           (-90.0 90.0)
  end
  begin
     id 19
     name lradius
     direction 1 -4.48957e-011 -1.3483e-026   
     length 2.98109   
     axis 180 -30 -90   XYZ
    dof rx
    limits (-10.0 170.0)
  end
  begin
     id 20
     name lwrist
     direction 1 -4.48954e-011 -3.11579e-026   
     length 1.49055   
     axis 2.00652e-014 90 90   XYZ
    dof ry
    limits (-180.0 0.0)
 end
  begin
     id 21 
     name lhand
     direction 1 -4.4911e-011 -6.23158e-026   
     length 0.480203   
     axis 3.97628e-014 90 90   XYZ
    dof rx rz
    limits (-90.0 90.0)
           (-45.0 45.0)
  end
  begin
     id 22 
     name lfingers
     direction 1 -4.48893e-011 -1.24632e-025   
     length 0.387152   
     axis 7.95256e-014 90 90   XYZ
    dof rx
    limits (0.0 90.0)
  end
  begin
     id 23
     name lthumb
     direction 0.707107 -6.35013e-011 0.707107   
     length 0.555875   
     axis -90 45 2.85299e-015   XYZ
    dof rx rz
    limits (-45.0 45.0)
           (-45.0 45.0)
  end
  begin
     id 24 
     name rclavicle
     direction -0.950396 0.30392 0.0661859   
     length 3.70894  
     axis 0 0 0   XYZ 
    dof ry rz
    limits (-10.0 20.0)
           (-20.0 0.0)
  end
  begin
     id 25 
     name rhumerus
     direction -1 -4.48957e-011 -2.96677e-027  
     length 4.76508   
     axis 180 30 90   XYZ
    dof rx ry rz
    limits (-90.0 60.0)
           (-90.0 90.0)
           (-90.0 90.0)
  end
  begin
     id 26 
     name rradius
     direction -1 -4.48974e-011 -1.44501e-026   
     length 2.78902   
     axis 180 30 90   XYZ
    dof rx
    limits (-10.0 170.0)
  end
  begin
     id 27 
     name rwrist
     direction -1 -4.48978e-011 -3.11579e-026   
     length 1.39451   
     axis 2.00652e-014 -90 -90   XYZ
    dof ry
    limits (-180.0 0.0)
  end
  begin
     id 28
     name rhand
     direction -1 -4.48956e-011 -6.23158e-026   
     length 0.721303   
     axis 3.97628e-014 -90 -90   XYZ
    dof rx rz
    limits (-90.0 90.0)
           (-45.0 45.0)
  end
  begin
     id 29
     name rfingers
     direction -1 -4.4899e-011 -1.24632e-025   
     length 0.581533   
     axis 7.95256e-014 -90 -90   XYZ
    dof rx
    limits (0.0 90.0)
  end
  begin
     id 30
     name rthumb
     direction -0.707107 -6.34911e-011 0.707107   
     length 0.834968   
     axis -90 -45 -2.85299e-015   XYZ
    dof rx rz
    limits (-45.0 45.0)
           (-45.0 45.0)
  end
:hierarchy
  begin
    root lhipjoint rhipjoint lowerback
    lhipjoint lfemur
    lfemur ltibia
    ltibia lfoot
    lfoot ltoes
    rhipjoint rfemur
    rfemur rtibia
    rtibia rfoot
    rfoot rtoes
    lowerback upperback
    upperback thorax
    thorax lowerneck lclavicle rclavicle
    lowerneck upperneck
    upperneck head
    lclavicle lhumerus
    lhumerus lradius
    lradius lwrist
    lwrist lhand lthumb
    lhand lfingers
    rclavicle rhumerus
    rhumerus rradius
    rradius rwrist
    rwrist rhand rthumb
    rhand rfingers
  end

#!OML:ASF I:\salsa\salsa 7_09\Patient 1\Session 1\dancerfemale.ASF
:FULLY-SPECIFIED
:DEGREES
994
root 8.9691 16.0996 7.60923 -175.226 -19.2653 545.105
lowerback 3.75459 7.17813 5.9786
upperback -5.98337 9.93683 1.18406
thorax -7.59686 4.45621 -2.97138
lowerneck 2.42337 -5.04901 -10.4894
upperneck 0.197229 -7.02898 7.83608
head 0.34931 -3.56873 4.46915
rclavicle 1.50082e-014 -5.96354e-015
rhumerus -9.85284 18.6989 -95.873
rradius 89.1297
rwrist -5.79332
rhand 1.4551 28.3042
rfingers 7.12502
rthumb 26.9833 0.211189
lclavicle 1.50082e-014 -5.96354e-015
lhumerus -74.6246 29.5 48.1852
lradius 98.5686
lwrist 2.14299
lhand -19.8181 47.962
lfingers 7.12502
lthumb 6.51543 77.8418
rfemur -11.5852 -11.2224 29.6714
rtibia 25.4585
rfoot -18.6948 -9.05183
rtoes -30.1617
lfemur -31.6493 -0.138226 -11.2061
ltibia 64.9424
lfoot -21.8766 5.87445
ltoes -25.0399
995
root 9.1299 16.0493 7.7206 -175.216 -22.0443 544.964
lowerback 3.21858 7.06752 5.19635
upperback -6.04872 9.69669 1.24829
thorax -7.511 4.39235 -2.41105
lowerneck 2.69407 -5.45489 -10.8308
upperneck 0.182059 -7.61786 8.67092
head 0.367495 -3.87148 4.32842
rclavicle 2.37051e-014 6.75868e-015
rhumerus -8.01964 16.643 -95.5466
rradius 90.5449
rwrist -5.25367
rhand 2.87411 29.2143
rfingers 7.12502
rthumb 28.3403 1.33899
lclavicle 2.37051e-014 6.75868e-015
lhumerus -76.1455 29.1235 46.2294
lradius 97.6696
lwrist 0.705755
lhand -20.4846 48.0805
lfingers 7.12502
lthumb 5.87195 77.9792
rfemur -12.5694 -10.518 30.0387
rtibia 26.5063
rfoot -19.5659 -9.98403
rtoes -30.0256
lfemur -30.6476 1.58269 -12.3841
ltibia 66.2363
lfoot -19.0888 4.03774
ltoes -13.661
996
root 9.2905 16.0065 7.8258 -174.967 -24.8303 544.387
lowerback 2.72196 6.89075 3.92406
upperback -6.14976 9.3487 1.2192
thorax -7.54654 4.29895 -1.69075
lowerneck 3.04938 -5.84637 -10.894
upperneck -0.0147598 -8.1701 8.5822
head 0.305314 -4.15205 4.31602
rclavicle -2.48481e-015 -7.15625e-015
rhumerus -6.34766 15.121 -95.3847
rradius 92.0944
rwrist -5.10188
rhand 3.72894 29.0856
rfingers 7.12502
rthumb 29.1569 1.3489
lclavicle -2.48481e-015 -7.15625e-015
lhumerus -77.2213 28.7198 44.2098
lradius 97.2667
lwrist 0.445682
lhand -20.8684 48.6051
lfingers 7.12502
lthumb 5.50137 78.5137
rfemur -13.5623 -9.17694 29.9317
rtibia 27.5269
rfoot -20.6217 -11.4287
rtoes -32.7056
lfemur -29.3631 2.85809 -13.698
ltibia 66.8716
lfoot -15.6833 2.79918
ltoes 2.58455
997
root 9.44272 15.9737 7.92513 -174.594 -27.5576 543.739
lowerback 2.26769 6.73649 2.6317
upperback -6.32468 9.03854 1.13539
thorax -7.66898 4.21944 -1.02716
lowerneck 3.49433 -6.21606 -11.2522
upperneck -0.087113 -8.72975 9.09278
head 0.305567 -4.44623 4.53178
rclavicle -4.64908e-014 -4.17448e-014
rhumerus -4.83564 13.7572 -95.1664
rradius 93.5313
rwrist -5.18497
rhand 3.42326 28.6833
rfingers 7.12502
rthumb 28.8649 0.896414
lclavicle -4.64908e-014 -4.17448e-014
lhumerus -77.6385 28.2326 42.3223
lradius 97.1332
lwrist 0.744131
lhand -20.8285 48.3683
lfingers 7.12502
lthumb 5.53989 78.2759
rfemur -14.4493 -7.82932 29.7223
rtibia 28.2348
rfoot -21.7363 -12.8953
rtoes -34.4423
lfemur -27.8466 3.75558 -14.7849
ltibia 66.9081
lfoot -14.3237 1.29021
ltoes 10.655
998
root 9.57755 15.9508 8.01877 -174.349 -30.254 543.611
lowerback 1.68206 6.62341 1.92602
upperback -6.53229 8.81604 1.13507
thorax -7.66635 4.14967 -0.577965
lowerneck 4.02293 -6.60516 -11.5899
upperneck -0.212693 -9.32278 9.49942
head 0.279288 -4.75838 4.71681
rclavicle 3.55079e-014 7.95139e-015
rhumerus -3.36422 12.5407 -94.7613
rradius 94.7437
rwrist -5.49372
rhand 3.19764 28.0419
rfingers 7.12502
rthumb 28.6494 0.218412
lclavicle 3.55079e-014 7.95139e-015
lhumerus -77.4009 27.6962 40.6594
lradius 97.1107
lwrist 1.24333
lhand -20.7572 47.7106
lfingers 7.12502
lthumb 5.60882 77.6164
rfemur -15.2091 -7.17147 29.9399
rtibia 28.5059
rfoot -22.6054 -13.8769
rtoes -34.4237
lfemur -26.2545 4.54937 -15.1158
ltibia 66.4649
lfoot -15.6295 -0.519614
ltoes 1.5258
999
root 9.69364 15.9361 8.11734 -174.456 -32.9744 544.216
lowerback 1.0867 6.53096 2.02704
upperback -6.76128 8.66662 1.26516
thorax -7.57746 4.06766 -0.428137
lowerneck 4.4374 -7.03586 -11.8156
upperneck -0.210901 -9.96127 9.66836
head 0.300748 -5.0895 4.80409
rclavicle -4.34096e-014 -3.12092e-014
rhumerus -1.83844 11.2403 -94.3554
rradius 95.3855
rwrist -5.60665
rhand 3.17204 27.953
rfingers 7.12502
rthumb 28.6249 0.125393
lclavicle -4.34096e-014 -3.12092e-014
lhumerus -76.644 27.1669 39.2684
lradius 97.1573
lwrist 1.5874
lhand -20.9268 47.5944
lfingers 7.12502
lthumb 5.445 77.5045
rfemur -15.8661 -7.53082 30.7283
rtibia 28.3707
rfoot -23.1017 -14.0646
rtoes -33.8683
lfemur -24.6583 5.18251 -14.5982
ltibia 65.5942
lfoot -16.2229 -2.47365
ltoes -6.15126
